<svg width="14" height="14" viewBox="0 0 14 14" fill="none" xmlns="http://www.w3.org/2000/svg">
<path d="M10.2084 5.25033C10.6916 5.25033 11.0834 4.85857 11.0834 4.37533C11.0834 3.89208 10.6916 3.50033 10.2084 3.50033C9.72513 3.50033 9.33337 3.89208 9.33337 4.37533C9.33337 4.85857 9.72513 5.25033 10.2084 5.25033Z" fill="#1C32FF"/>
<path fill-rule="evenodd" clip-rule="evenodd" d="M1.75004 1.16699C1.10571 1.16699 0.583374 1.68933 0.583374 2.33366V12.8337H12.25C12.8944 12.8337 13.4167 12.3113 13.4167 11.667V2.33366C13.4167 1.68933 12.8944 1.16699 12.25 1.16699H1.75004ZM1.75004 2.33366L12.25 2.33366V11.262L7.92262 6.68001C7.83605 6.58835 7.71608 6.53562 7.59001 6.53382C7.46394 6.53202 7.34251 6.58131 7.25336 6.67046L5.83335 8.09047L3.83 6.08712C3.64775 5.90488 3.35227 5.90488 3.17003 6.08712L1.75004 7.50711V2.33366Z" fill="#1C32FF"/>
</svg>
